HIERARCHY
ROOT Hips
{
	OFFSET 0.000000 89.005402 0.000000
	CHANNELS 6 Xposition Yposition Zposition Xrotation Yrotation Zrotation
	JOINT Spine
	{
		OFFSET 0.116900 10.681000 0.373400
		CHANNELS 3 Xrotation Yrotation Zrotation
		JOINT Spine1
		{
			OFFSET 0.000000 13.840401 0.053500
			CHANNELS 3 Xrotation Yrotation Zrotation
			JOINT Spine2
			{
				OFFSET 0.000000 14.712700 -0.366200
				CHANNELS 3 Xrotation Yrotation Zrotation
				JOINT Neck
				{
					OFFSET 0.000000 35.415497 -3.314200
					CHANNELS 3 Xrotation Yrotation Zrotation
					JOINT Head
					{
						OFFSET 0.000000 16.899200 1.218300
						CHANNELS 3 Xrotation Yrotation Zrotation
						JOINT HeadTop_End
						{
							OFFSET 0.000000 22.206207 2.192500
							CHANNELS 3 Xrotation Yrotation Zrotation
							End Site
							{
								OFFSET 0.000000 22.314178 0.000000
							}
						}
					}
				}
				JOINT LeftShoulder
				{
					OFFSET 12.896400 26.716293 -4.548400
					CHANNELS 3 Xrotation Yrotation Zrotation
					JOINT LeftArm
					{
						OFFSET 19.027000 -4.857010 -1.718400
						CHANNELS 3 Xrotation Yrotation Zrotation
						JOINT LeftForeArm
						{
							OFFSET 24.179897 0.000000 0.000000
							CHANNELS 3 Xrotation Yrotation Zrotation
							JOINT LeftHand
							{
								OFFSET 27.156403 0.000000 0.000000
								CHANNELS 3 Xrotation Yrotation Zrotation
								JOINT LeftHandIndex1
								{
									OFFSET 16.441200 0.000000 0.000000
									CHANNELS 3 Xrotation Yrotation Zrotation
									JOINT LeftHandIndex2
									{
										OFFSET 4.821899 0.000000 0.000000
										CHANNELS 3 Xrotation Yrotation Zrotation
										JOINT LeftHandIndex3
										{
											OFFSET 6.386497 0.000000 0.000000
											CHANNELS 3 Xrotation Yrotation Zrotation
											JOINT LeftHandIndex4
											{
												OFFSET 5.188988 0.000000 0.000000
												CHANNELS 3 Xrotation Yrotation Zrotation
												End Site
												{
													OFFSET -0.178703 5.185913 0.000177
												}
											}
										}
									}
								}
								JOINT LeftHandThumb1
								{
									OFFSET 6.534897 -5.032593 5.900300
									CHANNELS 3 Xrotation Yrotation Zrotation
									JOINT LeftHandThumb2
									{
										OFFSET 3.818176 -2.204422 2.204423
										CHANNELS 3 Xrotation Yrotation Zrotation
										JOINT LeftHandThumb3
										{
											OFFSET 3.252098 -1.877594 1.877601
											CHANNELS 3 Xrotation Yrotation Zrotation
											JOINT LeftHandThumb4
											{
												OFFSET 5.251778 -3.032120 3.032117
												CHANNELS 3 Xrotation Yrotation Zrotation
												End Site
												{
													OFFSET 0.000023 6.780014 0.000000
												}
											}
										}
									}
								}
							}
						}
					}
				}
				JOINT RightShoulder
				{
					OFFSET -12.896300 26.716293 -4.548400
					CHANNELS 3 Xrotation Yrotation Zrotation
					JOINT RightArm
					{
						OFFSET -19.027000 -4.857010 -1.718400
						CHANNELS 3 Xrotation Yrotation Zrotation
						JOINT RightForeArm
						{
							OFFSET -24.179897 0.000000 0.000000
							CHANNELS 3 Xrotation Yrotation Zrotation
							JOINT RightHand
							{
								OFFSET -27.156403 0.000000 0.000000
								CHANNELS 3 Xrotation Yrotation Zrotation
								JOINT RightHandThumb1
								{
									OFFSET -6.591202 -4.852203 5.988100
									CHANNELS 3 Xrotation Yrotation Zrotation
									JOINT RightHandThumb2
									{
										OFFSET -3.818176 -2.204422 2.204423
										CHANNELS 3 Xrotation Yrotation Zrotation
										JOINT RightHandThumb3
										{
											OFFSET -3.252098 -1.877594 1.877601
											CHANNELS 3 Xrotation Yrotation Zrotation
											JOINT RightHandThumb4
											{
												OFFSET -5.251778 -3.032120 3.032117
												CHANNELS 3 Xrotation Yrotation Zrotation
												End Site
												{
													OFFSET -0.000023 6.780014 0.000000
												}
											}
										}
									}
								}
								JOINT RightHandIndex1
								{
									OFFSET -16.029404 0.000000 0.000000
									CHANNELS 3 Xrotation Yrotation Zrotation
									JOINT RightHandIndex2
									{
										OFFSET -5.213303 0.000000 0.000000
										CHANNELS 3 Xrotation Yrotation Zrotation
										JOINT RightHandIndex3
										{
											OFFSET -6.386528 0.000000 0.000000
											CHANNELS 3 Xrotation Yrotation Zrotation
											JOINT RightHandIndex4
											{
												OFFSET -5.189026 0.000000 0.000000
												CHANNELS 3 Xrotation Yrotation Zrotation
												End Site
												{
													OFFSET 0.236702 5.183624 0.001972
												}
											}
										}
									}
								}
							}
						}
					}
				}
			}
		}
	}
	JOINT LeftUpLeg
	{
		OFFSET 14.073000 -7.904099 -1.463000
		CHANNELS 3 Xrotation Yrotation Zrotation
		JOINT LeftLeg
		{
			OFFSET -0.109806 -34.073280 4.093200
			CHANNELS 3 Xrotation Yrotation Zrotation
			JOINT LeftFoot
			{
				OFFSET 0.109806 -29.899420 -6.319000
				CHANNELS 3 Xrotation Yrotation Zrotation
				JOINT LeftToeBase
				{
					OFFSET 1.551100 -14.988700 20.535801
					CHANNELS 3 Xrotation Yrotation Zrotation
					JOINT LeftToe_End
					{
						OFFSET 0.221200 0.570800 13.248301
						CHANNELS 3 Xrotation Yrotation Zrotation
						End Site
						{
							OFFSET 0.000000 13.262435 0.000000
						}
					}
				}
			}
		}
	}
	JOINT RightUpLeg
	{
		OFFSET -13.839300 -7.904099 -1.463000
		CHANNELS 3 Xrotation Yrotation Zrotation
		JOINT RightLeg
		{
			OFFSET 0.109694 -34.073219 4.093300
			CHANNELS 3 Xrotation Yrotation Zrotation
			JOINT RightFoot
			{
				OFFSET -0.109694 -29.899384 -6.319200
				CHANNELS 3 Xrotation Yrotation Zrotation
				JOINT RightToeBase
				{
					OFFSET -1.551100 -14.988700 20.535801
					CHANNELS 3 Xrotation Yrotation Zrotation
					JOINT RightToe_End
					{
						OFFSET -0.221200 0.570900 13.248299
						CHANNELS 3 Xrotation Yrotation Zrotation
						End Site
						{
							OFFSET 0.000000 13.262440 0.000000
						}
					}
				}
			}
		}
	}
}
MOTION
Frames: 6
Frame Time: 0.033333
-3.171600 84.623466 1.710859 -2.836159 -1.167490 -1.499480 0.528809 2.632263 1.995169 0.221383 1.764980 0.957734 0.229455 1.791346 0.940641 -1.936568 -0.508413 -1.136572 -11.793623 -2.231015 -4.098489 -0.000001 0.000000 0.000000 2.237201 -12.316502 -9.892715 8.115481 -13.735369 -63.082623 0.000008 -10.043765 0.000007 -12.427361 4.029429 6.887584 0.141745 1.392699 -11.622262 0.083768 1.072947 -8.927919 0.020972 0.538100 -4.463581 -0.000001 0.000000 -0.000000 6.277232 16.289402 13.440146 8.903334 12.226829 -1.301470 1.871004 3.746222 1.882194 -0.000001 0.000001 0.000004 0.918016 -0.044086 11.211423 22.525715 28.200123 48.830453 -0.000005 32.800645 0.000023 -24.220903 4.830235 -16.710553 7.209034 -23.607007 -7.406032 6.867240 -11.189090 1.266695 -0.189211 -1.164795 -1.546965 -0.000001 0.000001 0.000002 0.065103 -0.951201 7.830383 0.180042 -1.575131 13.040325 0.045149 -0.792682 6.518952 0.000002 0.000001 -0.000002 -28.031033 -2.527834 3.276415 52.443039 8.044666 -7.663890 -1.995521 2.318265 5.056789 -16.860844 0.105467 -2.931930 0.000000 -0.000000 -0.000000 -10.195521 -3.126415 6.602241 28.838377 0.055108 1.909578 -14.961140 2.815781 -12.475820 -0.184191 -0.000707 0.246999 0.000000 0.000000 -0.000000 
-2.961171 85.104301 5.493529 -2.210747 -0.881298 -1.323404 0.290458 3.193512 2.356909 0.040020 2.221922 1.047318 0.042673 2.246093 1.018712 -1.532149 -0.677938 -1.221342 -11.911153 -3.185656 -4.120335 0.000003 -0.000000 -0.000000 2.366775 -13.251186 -9.913250 9.137955 -13.636137 -62.393450 -0.000001 -11.472882 -0.000005 -11.678194 3.699898 5.797729 0.141745 1.392699 -11.622258 0.083767 1.072947 -8.927920 0.020971 0.538100 -4.463581 -0.000000 -0.000000 0.000000 6.277229 16.289400 13.440153 8.903339 12.226831 -1.301471 1.871000 3.746217 1.882192 0.000002 0.000000 0.000004 0.899436 -0.275380 11.410114 23.405771 29.147436 46.547049 -0.000017 34.803396 0.000021 -24.911428 4.950772 -17.813816 7.209036 -23.607010 -7.406036 6.867243 -11.189090 1.266694 -0.189209 -1.164791 -1.546963 0.000001 0.000000 0.000001 0.065104 -0.951203 7.830382 0.180040 -1.575129 13.040327 0.045146 -0.792680 6.518952 -0.000000 -0.000002 0.000001 -29.305292 -5.707177 2.231566 39.560275 9.109050 -7.965547 3.015658 5.018507 5.625048 -7.731299 0.179587 -3.369952 0.000000 -0.000001 0.000000 -5.337530 -3.740858 7.067655 25.529919 0.154166 0.450230 -17.515684 2.899596 -12.579911 -0.038281 -0.000000 -0.000003 -0.000000 0.000000 0.000000 
-2.630412 85.115570 9.119452 -1.793002 -0.814815 -1.082973 -0.030796 3.728903 2.692668 -0.240391 2.666381 1.170465 -0.246285 2.688919 1.126812 -1.212825 -0.830300 -1.302953 -12.024746 -4.109717 -4.149021 -0.000001 0.000000 0.000000 2.484842 -13.990958 -9.980622 10.406099 -12.364657 -62.018370 0.000002 -14.265574 -0.000014 -11.940414 4.272176 5.395487 0.141745 1.392700 -11.622258 0.083766 1.072948 -8.927918 0.020972 0.538101 -4.463581 -0.000001 -0.000000 -0.000000 6.277230 16.289402 13.440144 8.903338 12.226832 -1.301469 1.870999 3.746217 1.882199 -0.000000 -0.000000 0.000000 0.881893 -0.504296 11.481045 24.533006 29.849207 43.953767 -0.000015 36.815614 0.000000 -24.585636 4.226501 -17.966572 7.209033 -23.607012 -7.406036 6.867241 -11.189089 1.266696 -0.189206 -1.164793 -1.546971 0.000001 -0.000001 -0.000001 0.065107 -0.951206 7.830383 0.180045 -1.575129 13.040328 0.045146 -0.792682 6.518950 0.000001 0.000001 -0.000002 -28.593154 -7.117773 1.311508 22.547385 8.671106 -5.499426 10.720780 6.174964 4.121626 -0.000002 0.000003 -0.000000 0.000000 0.000001 0.000000 -1.301697 -5.229507 6.827995 23.769060 1.720648 -0.428194 -20.025215 3.032604 -12.477196 -0.049395 0.000000 -0.000003 0.000000 0.000000 0.000000 
-2.237221 84.403084 12.806396 -1.513082 -1.049594 -1.363363 -0.404795 4.268724 3.129707 -0.593176 3.051281 1.334086 -0.609198 3.075336 1.270962 -1.028295 -0.935664 -1.368741 -12.058797 -4.833059 -4.178213 -0.000001 -0.000000 -0.000000 2.574561 -14.485110 -10.065832 11.620069 -10.517311 -62.036914 0.000002 -17.108849 -0.000028 -12.526301 5.461159 5.731972 0.141745 1.392701 -11.622263 0.083766 1.072947 -8.927920 0.020972 0.538100 -4.463582 -0.000001 -0.000000 -0.000000 6.277230 16.289398 13.440147 8.903332 12.226829 -1.301473 1.871002 3.746219 1.882196 -0.000000 0.000002 -0.000000 0.863885 -0.735030 11.430700 25.652042 30.341657 41.416864 -0.000003 38.883502 0.000004 -23.649301 2.976491 -17.441341 7.209036 -23.607007 -7.406036 6.867243 -11.189090 1.266697 -0.189209 -1.164791 -1.546968 0.000001 0.000001 0.000000 0.065105 -0.951201 7.830384 0.180046 -1.575128 13.040326 0.045146 -0.792678 6.518951 0.000003 -0.000001 0.000003 -28.950665 -6.550027 1.007771 11.570103 8.142825 -2.002474 9.755942 2.596115 2.137312 0.000006 0.000000 0.000001 -0.000000 0.000000 0.000000 2.102680 -6.406130 6.639359 23.781585 3.314813 -0.468846 -23.487019 3.463899 -12.679579 -0.059466 0.000001 -0.000007 0.000000 0.000000 -0.000000 
-1.741616 82.963425 16.909655 -1.491041 -1.548102 -2.402521 -0.806635 4.759011 3.867954 -0.971489 3.312862 1.510683 -0.996899 3.341764 1.426390 -1.026947 -0.964820 -1.407870 -11.949638 -5.168383 -4.199768 0.000000 0.000000 0.000000 2.626454 -14.714659 -10.144557 12.424618 -8.799032 -62.400041 -0.000000 -18.451449 0.000005 -12.692015 6.761150 6.709075 0.141744 1.392700 -11.622260 0.083767 1.072948 -8.927920 0.020972 0.538100 -4.463581 0.000000 -0.000000 -0.000000 6.277230 16.289402 13.440149 8.903336 12.226830 -1.301471 1.871004 3.746219 1.882195 -0.000001 -0.000001 0.000001 0.847379 -0.954635 11.376428 26.360883 30.645778 39.386870 -0.000001 40.748260 -0.000007 -22.577964 1.731789 -16.764539 7.209033 -23.607005 -7.406033 6.867240 -11.189090 1.266698 -0.189213 -1.164794 -1.546965 0.000003 -0.000001 -0.000001 0.065106 -0.951206 7.830385 0.180043 -1.575127 13.040324 0.045143 -0.792684 6.518954 0.000001 -0.000001 0.000001 -35.138547 -5.701647 0.641491 14.388529 6.921560 1.554967 3.533475 0.648168 -0.166171 -0.000008 0.000001 -0.000001 0.000000 0.000000 0.000000 5.764309 -6.580931 7.017199 24.756707 4.343095 -0.129719 -27.922560 3.994312 -13.012464 -0.063003 -0.000001 0.000003 0.000000 0.000000 -0.000000 
-1.379122 81.934959 20.917923 -1.492638 -2.093321 -2.603718 -1.097711 5.007791 4.291989 -1.252465 3.417846 1.609805 -1.282625 3.450927 1.511855 -1.167578 -0.923723 -1.426354 -11.719171 -5.089522 -4.211973 0.000002 0.000000 0.000000 2.651194 -14.753583 -10.218117 12.447035 -7.770637 -62.881686 -0.000002 -17.123054 -0.000007 -11.965272 7.498674 7.985372 0.141745 1.392700 -11.622264 0.083766 1.072947 -8.927920 0.020972 0.538100 -4.463581 0.000000 -0.000000 0.000000 6.277230 16.289400 13.440145 8.903336 12.226833 -1.301470 1.871001 3.746220 1.882199 0.000002 0.000002 0.000001 0.838658 -1.110261 11.409451 26.207200 30.735216 38.373403 -0.000002 41.702079 -0.000007 -21.816854 0.972178 -16.467444 7.209034 -23.607009 -7.406037 6.867241 -11.189090 1.266696 -0.189213 -1.164795 -1.546967 -0.000000 0.000001 -0.000000 0.065101 -0.951206 7.830382 0.180040 -1.575130 13.040329 0.045146 -0.792680 6.518950 0.000001 0.000001 0.000000 -38.321978 -5.967574 0.059782 16.458978 7.185057 2.993259 -2.875942 1.180405 -0.809819 -0.000002 -0.000000 0.000000 -0.000002 0.000000 0.000000 10.043254 -6.056996 6.654227 23.743886 4.954195 0.353854 -31.153575 4.364668 -13.666265 -0.048680 -0.000000 0.002350 0.000000 0.000000 0.000001 
